<svg width="40" height="40" viewBox="0 0 40 40" fill="none" xmlns="http://www.w3.org/2000/svg">
<path d="M36.6666 27.9V7.78336C36.6666 5.78336 35.0333 4.30003 33.0499 4.4667H32.9499C29.4499 4.7667 24.1333 6.55003 21.1666 8.4167L20.8833 8.60003C20.3999 8.90003 19.5999 8.90003 19.1166 8.60003L18.6999 8.35003C15.7333 6.50003 10.4333 4.73336 6.93325 4.45003C4.94992 4.28336 3.33325 5.78336 3.33325 7.7667V27.9C3.33325 29.5 4.63325 31 6.23325 31.2L6.71659 31.2667C10.3333 31.75 15.9166 33.5834 19.1166 35.3334L19.1833 35.3667C19.6333 35.6167 20.3499 35.6167 20.7833 35.3667C23.9833 33.6 29.5833 31.75 33.2166 31.2667L33.7666 31.2C35.3666 31 36.6666 29.5 36.6666 27.9Z" stroke="#4E4C57" stroke-width="3" stroke-linecap="round" stroke-linejoin="round"/>
<path d="M20 9.15002V34.15" stroke="#4E4C57" stroke-width="3" stroke-linecap="round" stroke-linejoin="round"/>
<path d="M12.9167 14.15H9.16675" stroke="#4E4C57" stroke-width="3" stroke-linecap="round" stroke-linejoin="round"/>
<path d="M14.1667 19.15H9.16675" stroke="#4E4C57" stroke-width="3" stroke-linecap="round" stroke-linejoin="round"/>
</svg>
