<svg width="41" height="40" viewBox="0 0 41 40" fill="none" xmlns="http://www.w3.org/2000/svg">
<path fill-rule="evenodd" clip-rule="evenodd" d="M10.4146 3.5C10.4146 3.22386 10.6385 3 10.9146 3H29.0813C29.3575 3 29.5813 3.22386 29.5813 3.5V11H10.4146V3.5ZM29.5813 14H30.6741H31.0813H36.5732C36.8493 14 37.0732 14.2239 37.0732 14.5L37.0732 18.5C37.0732 18.7761 36.8493 19 36.5732 19H3.5C3.22386 19 3 18.7761 3 18.5L3 14.5C3 14.2239 3.22386 14 3.5 14H8.3293H8.91464H10.4146H29.5813ZM10.9146 0C8.98164 0 7.41464 1.567 7.41464 3.5V11H3.5C1.567 11 -2.02656e-06 12.567 0 14.5L4.17233e-06 18.5C5.6159e-06 19.8769 0.795121 21.0681 1.95125 21.6396V37.5C1.95125 38.8807 3.07054 40 4.45125 40H35.622C37.0027 40 38.122 38.8807 38.122 37.5V21.6395C39.2781 21.0681 40.0732 19.8769 40.0732 18.5L40.0732 14.5C40.0732 12.567 38.5062 11 36.5732 11H32.5813V3.5C32.5813 1.56701 31.0143 0 29.0813 0H10.9146ZM35.122 22H4.95125V37H12.683V29.5C12.683 27.567 14.25 26 16.183 26H22.9147C24.8477 26 26.4147 27.567 26.4147 29.5V37H35.122V22ZM23.4147 37V29.5C23.4147 29.2239 23.1908 29 22.9147 29H16.183C15.9068 29 15.683 29.2239 15.683 29.5V37H23.4147Z" fill="#4E4C57"/>
</svg>
