<svg width="40" height="41" viewBox="0 0 40 41" fill="none" xmlns="http://www.w3.org/2000/svg">
<path d="M20.0001 23.6175C21.841 23.6175 23.3334 22.1252 23.3334 20.2842C23.3334 18.4433 21.841 16.9509 20.0001 16.9509C18.1591 16.9509 16.6667 18.4433 16.6667 20.2842C16.6667 22.1252 18.1591 23.6175 20.0001 23.6175Z" stroke="#4E4C57" stroke-width="3" stroke-linecap="round" stroke-linejoin="round"/>
<path d="M33.3333 30.2842C35.4333 27.5008 36.6666 24.0342 36.6666 20.2842C36.6666 16.5342 35.4333 13.0675 33.3333 10.2842" stroke="#4E4C57" stroke-width="3" stroke-linecap="round" stroke-linejoin="round"/>
<path d="M6.66659 10.2842C4.56659 13.0675 3.33325 16.5342 3.33325 20.2842C3.33325 24.0342 4.56659 27.5008 6.66659 30.2842" stroke="#4E4C57" stroke-width="3" stroke-linecap="round" stroke-linejoin="round"/>
<path d="M28 26.2842C29.25 24.6175 30 22.5342 30 20.2842C30 18.0342 29.25 15.9508 28 14.2842" stroke="#4E4C57" stroke-width="3" stroke-linecap="round" stroke-linejoin="round"/>
<path d="M12 14.2842C10.75 15.9508 10 18.0342 10 20.2842C10 22.5342 10.75 24.6175 12 26.2842" stroke="#4E4C57" stroke-width="3" stroke-linecap="round" stroke-linejoin="round"/>
</svg>
