<svg width="58" height="57" viewBox="0 0 58 57" fill="none" xmlns="http://www.w3.org/2000/svg">
<path d="M14.0802 36.2039L19.136 36.6399C19.902 36.6988 20.5855 37.3824 20.6445 38.1484L21.0805 43.2042C21.3987 44.1588 22.4947 44.6184 23.414 44.1706L25.4999 43.1217C26.0067 42.8742 26.431 42.1907 26.431 41.625L26.4427 36.2628C26.431 35.8739 26.6549 35.3436 26.9259 35.0725L30.2847 31.7137C30.7797 31.2188 31.3807 31.3484 31.6518 31.9966L34.9398 40.2815C35.4584 41.5779 36.684 41.8371 37.674 40.8472L39.1942 39.3269C39.9838 38.5373 40.302 37.0406 39.8778 36.0035L36.1301 26.5754C36.024 26.3044 36.1065 25.8919 36.3187 25.6798L39.8542 22.1442C40.962 21.0364 41.457 18.9151 40.9738 17.4184C40.797 16.8881 40.3845 16.4756 39.8542 16.2988C38.3575 15.8156 36.2244 16.3224 35.1166 17.4302L31.5811 20.9657C31.3689 21.1778 30.9564 21.2603 30.6854 21.1543L21.2691 17.4184C20.2438 16.9823 18.7471 17.3005 17.9575 18.0901L16.4372 19.6104C15.4472 20.6004 15.7065 21.826 17.0029 22.3446L25.2878 25.6326C25.936 25.8801 26.0656 26.5047 25.5706 26.9997L22.2119 30.3585C21.9408 30.6295 21.4105 30.8534 21.0334 30.8534L15.6711 30.8652C15.1055 30.8652 14.4337 31.2777 14.1744 31.7962L13.1256 33.8822C12.6542 34.7779 13.102 35.8857 14.0802 36.2039Z" stroke="#4E4C57" stroke-width="3" stroke-linecap="round" stroke-linejoin="round"/>
</svg>
